<?xml version="1.0" standalone="no"?>
<!DOCTYPE svg PUBLIC "-//W3C//DTD SVG 20010904//EN"
 "http://www.w3.org/TR/2001/REC-SVG-20010904/DTD/svg10.dtd">
<svg version="1.0" xmlns="http://www.w3.org/2000/svg"
 width="299.000000pt" height="195.000000pt" viewBox="0 0 299.000000 195.000000"
 preserveAspectRatio="xMidYMid meet">
<metadata>
Created by potrace 1.10, written by Peter Selinger 2001-2011
</metadata>
<g transform="translate(0.000000,195.000000) scale(0.100000,-0.100000)"
fill="#ffffff" stroke="none">
<path d="M1374 1616 c-3 -9 -10 -13 -15 -10 -14 8 -10 -6 6 -22 13 -14 15 -14
15 1 0 12 5 15 16 11 15 -6 15 -4 3 11 -7 10 -15 20 -16 22 -1 2 -5 -4 -9 -13z"/>
<path d="M1439 1575 c-1 -11 -1 -28 0 -39 0 -10 -4 -26 -11 -35 -11 -14 -11
-14 3 -3 9 7 23 11 30 10 10 -2 14 7 14 29 1 17 -3 30 -7 27 -4 -2 -11 4 -17
13 -10 17 -11 17 -12 -2z"/>
<path d="M1393 1565 c-7 -7 -8 -17 -2 -26 7 -11 9 -11 9 3 0 9 5 18 12 20 7 3
8 7 3 10 -6 3 -15 0 -22 -7z"/>
<path d="M1240 1535 c0 -8 5 -15 10 -15 6 0 10 7 10 15 0 8 -4 15 -10 15 -5 0
-10 -7 -10 -15z"/>
<path d="M1270 1516 c0 -8 10 -22 22 -30 12 -9 20 -17 17 -18 -26 -17 -51 -28
-60 -28 -7 0 -27 -11 -44 -25 -18 -13 -35 -22 -39 -20 -3 3 -4 2 -1 -2 3 -4
-6 -18 -19 -32 -53 -56 -75 -116 -82 -224 -4 -56 -11 -107 -16 -113 -5 -8 -2
-13 9 -16 10 -3 31 -30 46 -61 53 -105 159 -169 280 -168 40 0 82 3 95 7 19 5
21 3 16 -12 -5 -18 -5 -18 6 -1 14 22 30 22 30 -1 0 -9 9 -23 21 -30 12 -8 18
-20 15 -30 -2 -9 -7 -34 -11 -55 -6 -35 -4 -38 14 -32 14 4 21 0 26 -15 8 -24
-3 -62 -16 -55 -5 4 -17 1 -26 -4 -16 -9 -16 -10 -2 -11 22 0 32 -39 13 -47
-8 -3 -14 -11 -14 -19 0 -8 -9 -23 -20 -34 -11 -11 -15 -20 -9 -20 15 0 69 59
82 90 5 14 16 61 22 104 13 83 5 151 -24 205 -12 21 -11 26 4 37 9 7 23 10 31
7 9 -3 14 2 14 14 0 11 8 28 19 39 10 12 22 35 26 52 3 18 10 34 15 37 5 3 5
19 0 36 -8 26 -6 31 15 39 12 5 26 14 30 20 6 9 2 9 -13 1 -18 -9 -20 -7 -26
32 -3 23 -8 60 -9 82 -4 50 -37 121 -73 160 -15 17 -30 30 -33 29 -3 0 -21 8
-39 19 -23 14 -31 24 -27 37 3 10 0 22 -6 26 -7 4 -9 3 -6 -3 14 -22 -17 -31
-58 -17 -25 8 -59 11 -90 8 -48 -6 -51 -5 -68 25 -19 33 -37 41 -37 17z m-34
-137 c-25 -28 -46 -57 -46 -64 0 -7 -7 -15 -15 -19 -11 -4 -14 -15 -9 -41 7
-44 -8 -73 -16 -30 -6 28 -7 27 -23 -25 -9 -30 -13 -57 -10 -60 3 -3 8 1 10 8
3 6 11 12 19 12 11 0 14 -8 12 -27 -2 -22 -9 -28 -27 -29 -26 -1 -51 16 -51
35 0 6 4 11 8 11 4 0 8 15 8 33 0 46 60 166 90 179 13 6 24 16 24 21 0 14 40
47 57 47 9 0 -4 -21 -31 -51z m249 25 c63 -31 94 -80 77 -119 -6 -14 -8 -25
-3 -25 5 0 11 6 14 13 8 21 29 -46 29 -93 0 -29 -6 -48 -16 -56 -19 -13 -21
-25 -3 -22 8 2 13 -15 15 -52 3 -51 2 -54 -14 -39 -22 23 -31 104 -13 126 12
14 12 16 -1 11 -29 -9 -34 -62 -11 -122 18 -49 19 -57 6 -62 -8 -4 -15 -11
-15 -16 0 -6 6 -5 15 2 23 19 19 -6 -6 -38 -15 -20 -17 -28 -7 -31 7 -2 15 -8
18 -12 3 -5 11 1 18 11 7 11 8 20 3 20 -14 0 6 63 23 76 10 7 12 15 5 25 -13
20 -11 29 6 29 17 0 20 16 5 25 -13 8 -13 52 0 60 8 5 8 11 0 20 -6 7 -10 28
-9 46 1 19 -5 51 -14 72 -16 37 -16 38 3 32 17 -5 19 -2 16 17 -2 14 -10 22
-20 22 -10 -1 -16 6 -16 18 0 10 -12 30 -27 43 -16 13 -22 25 -15 25 8 0 23
-12 35 -26 12 -15 32 -37 45 -51 37 -40 89 -155 62 -138 -13 8 -39 -22 -40
-45 0 -9 6 -7 16 8 16 24 34 21 34 -5 0 -13 -3 -13 -15 -3 -11 9 -15 9 -15 1
0 -6 7 -14 15 -17 8 -4 15 -17 15 -31 0 -22 -2 -24 -15 -13 -9 8 -15 9 -15 2
0 -6 4 -14 10 -17 14 -9 3 -91 -17 -122 -9 -16 -31 -45 -48 -65 -28 -33 -31
-43 -29 -98 2 -67 1 -68 -24 -18 -11 20 -24 32 -35 32 -10 -1 -17 5 -17 17 0
21 -16 26 -23 7 -4 -8 -6 -7 -6 3 -1 9 -8 22 -17 30 -10 8 -14 23 -12 41 3 16
1 31 -4 34 -4 3 -8 10 -8 15 0 19 61 -36 67 -60 3 -14 12 -36 20 -50 13 -25
13 -24 11 21 -1 37 -6 49 -20 54 -10 3 -18 10 -18 15 0 5 -9 18 -20 29 -20 20
-20 20 0 20 11 0 20 5 20 11 0 5 4 8 9 5 5 -3 11 5 13 19 3 13 1 22 -3 19 -5
-3 -9 8 -9 24 0 19 -5 29 -15 29 -8 0 -15 -4 -15 -9 0 -4 6 -8 13 -8 9 0 9 -2
0 -8 -10 -7 -10 -12 1 -27 21 -29 -2 -47 -51 -39 -21 3 -41 8 -45 11 -11 6
-10 -5 4 -30 6 -12 10 -38 10 -59 -2 -30 3 -41 23 -54 38 -25 31 -41 -17 -45
-67 -6 -108 0 -108 17 0 8 -3 13 -7 12 -19 -6 -65 38 -83 79 -21 47 -36 110
-31 131 1 8 -3 20 -9 27 -7 8 -8 20 -4 26 4 7 8 40 9 73 2 69 40 170 60 162 8
-3 11 2 8 12 -3 12 10 26 39 45 56 36 123 37 193 1z m-323 -351 c2 -37 3 -43
16 -76 7 -16 12 -32 12 -36 0 -5 11 -24 24 -43 13 -20 21 -40 17 -46 -9 -14
-51 22 -51 44 0 9 -3 14 -6 11 -4 -3 -15 -2 -26 4 -13 7 -17 16 -13 30 4 11 2
19 -5 19 -13 0 -30 42 -36 88 -4 31 -3 32 31 32 31 0 35 -3 37 -27z m452 -373
l7 -25 -15 25 c-17 28 -21 50 -7 35 5 -6 12 -21 15 -35z m-29 -30 c-12 -19
-22 -10 -17 16 4 22 6 24 14 10 5 -9 6 -21 3 -26z"/>
<path d="M1501 1289 c-1 -8 8 -25 19 -37 24 -26 32 -28 24 -7 -4 8 -10 15 -15
15 -5 0 -14 10 -19 23 -5 14 -9 16 -9 6z"/>
<path d="M1630 1253 c1 -11 26 -43 34 -43 14 0 5 26 -14 38 -11 7 -20 9 -20 5z"/>
<path d="M1240 1089 c0 -12 25 -25 48 -27 15 0 22 5 22 17 0 13 -8 17 -35 17
-19 -1 -35 -4 -35 -7z"/>
<path d="M1330 855 c0 -8 7 -15 16 -15 14 0 14 3 4 15 -7 8 -14 15 -16 15 -2
0 -4 -7 -4 -15z"/>
<path d="M1063 1314 c-3 -8 0 -21 7 -27 10 -9 11 -9 6 1 -4 7 -2 19 4 27 9 11
9 15 1 15 -6 0 -14 -7 -18 -16z"/>
<path d="M1475 410 c-9 -15 -1 -23 21 -18 15 3 16 4 1 16 -11 9 -17 10 -22 2z"/>
</g>
</svg>
